<svg xmlns="http://www.w3.org/2000/svg" xmlns:xlink="http://www.w3.org/1999/xlink" preserveAspectRatio="xMidYMid" width="582" height="582" viewBox="0 0 582 582">
  <defs>
    <style>
      .cls-1, .cls-2 {
        fill: red;
        opacity: 0.5;
      }

      .cls-1 {
        fill-rule: evenodd;
      }
    </style>
  </defs>
  <g>
    <path d="M413.526,420.840 C449.961,435.917 474.525,455.463 468.390,464.497 C462.256,473.531 427.746,468.632 391.310,453.555 C354.875,438.478 330.311,418.932 336.446,409.899 C342.581,400.865 377.091,405.763 413.526,420.840 Z" class="cls-1"/>
    <ellipse cx="388.5" cy="391" rx="31.5" ry="30" class="cls-2"/>
    <circle cx="434.5" cy="406.5" r="33.5" class="cls-2"/>
    <path d="M503.089,364.399 C520.121,372.941 523.590,400.477 510.838,425.901 C498.087,451.325 473.943,465.010 456.911,456.467 C439.879,447.925 436.410,420.390 449.162,394.966 C461.913,369.542 486.057,355.857 503.089,364.399 Z" class="cls-1"/>
    <ellipse cx="441.5" cy="336.5" rx="82.5" ry="37.5" class="cls-2"/>
    <ellipse cx="455.5" cy="281.5" rx="34.5" ry="39.5" class="cls-2"/>
    <ellipse cx="444.5" cy="194.5" rx="35.5" ry="32.5" class="cls-2"/>
    <ellipse cx="344.5" cy="246.5" rx="48.5" ry="40.5" class="cls-2"/>
    <ellipse cx="308.5" cy="303.5" rx="45.5" ry="38.5" class="cls-2"/>
    <ellipse cx="302" cy="381" rx="57" ry="45" class="cls-2"/>
    <circle cx="216" cy="380" r="38" class="cls-2"/>
    <path d="M202.293,390.043 C231.188,397.426 250.899,417.942 246.319,435.868 C241.739,453.794 214.602,462.340 185.707,454.957 C156.812,447.574 137.101,427.058 141.681,409.132 C146.261,391.206 173.398,382.660 202.293,390.043 Z" class="cls-1"/>
    <circle cx="118" cy="483" r="42" class="cls-2"/>
    <path d="M197.314,268.909 C229.150,259.716 259.733,268.799 265.624,289.198 C271.514,309.596 250.481,333.585 218.645,342.778 C186.808,351.971 156.225,342.888 150.334,322.490 C144.444,302.092 165.477,278.103 197.314,268.909 Z" class="cls-1"/>
    <circle cx="263" cy="219" r="38" class="cls-2"/>
    <path d="M157.122,225.601 C189.697,220.458 222.934,226.751 231.360,239.655 C239.786,252.559 220.210,267.188 187.636,272.330 C155.061,277.473 121.824,271.180 113.398,258.276 C104.972,245.372 124.548,230.743 157.122,225.601 Z" class="cls-1"/>
    <circle cx="90" cy="248" r="30" class="cls-2"/>
    <circle cx="88.5" cy="168.5" r="37.5" class="cls-2"/>
    <ellipse cx="105.5" cy="104" rx="46.5" ry="30" class="cls-2"/>
    <ellipse cx="160.5" cy="188" rx="62.5" ry="42" class="cls-2"/>
    <circle cx="242" cy="129" r="45" class="cls-2"/>
    <circle cx="339.5" cy="112.5" r="43.5" class="cls-2"/>
  </g>
</svg>
