<svg xmlns="http://www.w3.org/2000/svg" xmlns:xlink="http://www.w3.org/1999/xlink" preserveAspectRatio="xMidYMid" width="582" height="582" viewBox="0 0 582 582">
  <defs>
    <style>
      .cls-1, .cls-2 {
        fill: red;
        opacity: 0.5;
      }

      .cls-1 {
        fill-rule: evenodd;
      }
    </style>
  </defs>
  <g>
    <path d="M202.830,445.802 C231.999,434.598 260.650,440.154 266.823,458.212 C272.995,476.270 254.353,499.993 225.183,511.198 C196.014,522.402 167.363,516.846 161.190,498.788 C155.017,480.730 173.660,457.007 202.830,445.802 Z" class="cls-1"/>
    <ellipse cx="300.5" cy="501.5" rx="59.5" ry="33.5" class="cls-2"/>
    <ellipse cx="374" cy="439.5" rx="64" ry="62.5" class="cls-2"/>
    <ellipse cx="456.5" cy="396.5" rx="49.5" ry="47.5" class="cls-2"/>
    <circle cx="490.5" cy="487.5" r="43.5" class="cls-2"/>
    <circle cx="484.5" cy="278.5" r="48.5" class="cls-2"/>
    <path d="M381.139,231.454 C406.600,238.838 419.508,271.483 409.970,304.370 C400.433,337.256 372.061,357.930 346.600,350.546 C321.140,343.162 308.232,310.517 317.769,277.630 C327.307,244.744 355.679,224.070 381.139,231.454 Z" class="cls-1"/>
    <ellipse cx="271" cy="402.5" rx="60" ry="44.5" class="cls-2"/>
    <circle cx="177.5" cy="397.5" r="44.5" class="cls-2"/>
    <ellipse cx="216.5" cy="302" rx="71.5" ry="53" class="cls-2"/>
    <circle cx="75.5" cy="296.5" r="30.5" class="cls-2"/>
    <ellipse cx="91" cy="243.5" rx="46" ry="35.5" class="cls-2"/>
    <circle cx="160.5" cy="138.5" r="39.5" class="cls-2"/>
    <ellipse cx="216.5" cy="203" rx="46.5" ry="46" class="cls-2"/>
    <ellipse cx="313.5" cy="230" rx="50.5" ry="49" class="cls-2"/>
    <circle cx="408.5" cy="178.5" r="22.5" class="cls-2"/>
    <ellipse cx="302" cy="146" rx="43" ry="38" class="cls-2"/>
    <ellipse cx="237.5" cy="119.5" rx="31.5" ry="32.5" class="cls-2"/>
    <path d="M196.581,54.047 C216.767,43.191 238.644,44.643 245.446,57.289 C252.247,69.936 241.396,88.988 221.210,99.844 C201.024,110.700 179.147,109.248 172.346,96.601 C165.545,83.955 176.395,64.902 196.581,54.047 Z" class="cls-1"/>
    <ellipse cx="302" cy="74" rx="51" ry="34" class="cls-2"/>
    <ellipse cx="401.5" cy="79" rx="39.5" ry="26" class="cls-2"/>
    <path d="M459.988,93.564 C482.642,78.272 507.501,75.473 515.513,87.312 C523.525,99.150 511.655,121.144 489.001,136.436 C466.347,151.728 441.488,154.527 433.476,142.688 C425.464,130.850 437.334,108.856 459.988,93.564 Z" class="cls-1"/>
    <circle cx="490.5" cy="180.5" r="28.5" class="cls-2"/>
    <circle cx="90.5" cy="87.5" r="35.5" class="cls-2"/>
    <circle cx="128.5" cy="331.5" r="22.5" class="cls-2"/>
  </g>
</svg>
