<svg xmlns="http://www.w3.org/2000/svg" xmlns:xlink="http://www.w3.org/1999/xlink" preserveAspectRatio="xMidYMid" width="582" height="582" viewBox="0 0 582 582">
  <g>
    <ellipse cx="489" cy="335" rx="42" ry="47" class="cls-1"/>
    <path d="M526.746,319.022 C528.156,364.520 511.556,403.105 489.669,405.205 C467.782,407.304 448.896,372.123 447.486,326.625 C446.076,281.127 462.676,242.542 484.563,240.442 C506.450,238.343 525.336,273.524 526.746,319.022 Z" class="cls-2"/>
    <ellipse cx="446.5" cy="403" rx="50.5" ry="21" class="cls-1"/>
    <path d="M403.251,317.651 C432.971,323.246 455.153,341.591 452.798,358.626 C450.442,375.660 424.441,384.934 394.721,379.339 C365.002,373.744 342.819,355.399 345.175,338.364 C347.530,321.329 373.532,312.056 403.251,317.651 Z" class="cls-2"/>
    <ellipse cx="413" cy="294" rx="40" ry="39" class="cls-1"/>
    <ellipse cx="380.5" cy="229.5" rx="59.5" ry="24.5" class="cls-1"/>
    <ellipse cx="330" cy="295.5" rx="25" ry="52.5" class="cls-1"/>
    <circle cx="260.5" cy="195.5" r="53.5" class="cls-1"/>
    <path d="M145.583,197.785 C169.653,188.069 199.975,206.970 213.310,240.002 C226.645,273.034 217.942,307.689 193.872,317.406 C169.802,327.123 139.479,308.222 126.145,275.190 C112.810,242.157 121.513,207.502 145.583,197.785 Z" class="cls-2"/>
    <circle cx="137.5" cy="311.5" r="34.5" class="cls-1"/>
    <ellipse cx="186" cy="349.5" rx="52" ry="42.5" class="cls-1"/>
    <ellipse cx="80" cy="332" rx="35" ry="87" class="cls-1"/>
    <ellipse cx="164" cy="419" rx="62" ry="38" class="cls-1"/>
    <ellipse cx="217" cy="417.5" rx="25" ry="25.5" class="cls-1"/>
    <circle cx="72" cy="443" r="26" class="cls-1"/>
    <path d="M113.234,431.664 C128.777,414.550 162.987,420.301 189.644,444.511 C216.301,468.721 225.310,502.221 209.766,519.336 C194.223,536.450 160.013,530.699 133.356,506.489 C106.699,482.279 97.690,448.779 113.234,431.664 Z" class="cls-2"/>
    <path d="M113.234,431.664 C128.777,414.550 162.987,420.301 189.644,444.511 C216.301,468.721 225.310,502.221 209.766,519.336 C194.223,536.450 160.013,530.699 133.356,506.489 C106.699,482.279 97.690,448.779 113.234,431.664 Z" class="cls-2"/>
    <path d="M224.898,432.683 C236.094,428.317 255.065,446.187 267.272,472.595 C279.479,499.004 280.298,523.952 269.102,528.317 C257.906,532.683 238.935,514.813 226.728,488.405 C214.521,461.996 213.702,437.048 224.898,432.683 Z" class="cls-2"/>
    <ellipse cx="359" cy="453.5" rx="40" ry="88.5" class="cls-1"/>
  </g>
</svg>
