<svg xmlns="http://www.w3.org/2000/svg" xmlns:xlink="http://www.w3.org/1999/xlink" preserveAspectRatio="xMidYMid" width="582" height="582" viewBox="0 0 582 582">
  <g>
    <ellipse cx="158" cy="178.5" rx="43" ry="25.5" class="cls-1"/>
    <path d="M183.131,108.470 C224.390,75.898 264.047,62.713 271.706,79.022 C279.366,95.330 252.128,134.957 210.869,167.529 C169.610,200.102 129.953,213.287 122.294,196.978 C114.634,180.669 141.872,141.043 183.131,108.470 Z" class="cls-2"/>
    <circle cx="178" cy="107" r="27" class="cls-1"/>
    <ellipse cx="218.5" cy="165.5" rx="34.5" ry="31.5" class="cls-1"/>
    <path d="M197.547,188.159 C234.742,178.682 268.433,184.883 272.796,202.009 C277.160,219.135 250.544,240.701 213.348,250.178 C176.153,259.655 142.463,253.454 138.099,236.328 C133.736,219.202 160.352,197.636 197.547,188.159 Z" class="cls-2"/>
    <path d="M360.642,81.248 C374.940,79.921 388.929,104.702 391.889,136.598 C394.848,168.493 385.656,195.425 371.358,196.752 C357.060,198.079 343.071,173.298 340.111,141.402 C337.152,109.507 346.344,82.575 360.642,81.248 Z" class="cls-2"/>
    <circle cx="392" cy="198" r="21" class="cls-1"/>
    <ellipse cx="407" cy="135.5" rx="34" ry="35.5" class="cls-1"/>
    <circle cx="426" cy="182" r="24" class="cls-1"/>
    <ellipse cx="409.5" cy="75.5" rx="37.5" ry="26.5" class="cls-1"/>
    <circle cx="465.5" cy="75.5" r="19.5" class="cls-1"/>
    <circle cx="463" cy="110" r="28" class="cls-1"/>
    <circle cx="471.5" cy="155.5" r="19.5" class="cls-1"/>
    <ellipse cx="509.5" cy="109" rx="23.5" ry="64" class="cls-1"/>
    <path d="M493.581,301.362 C529.634,318.780 534.605,383.110 504.683,445.048 C474.761,506.985 421.277,543.076 385.223,525.659 C349.170,508.241 344.199,443.911 374.121,381.973 C404.043,320.035 457.527,283.945 493.581,301.362 Z" class="cls-2"/>
    <path d="M502.169,291.429 C528.116,297.182 545.975,316.169 542.057,333.839 C538.139,351.509 513.929,361.169 487.982,355.416 C462.034,349.664 444.176,330.676 448.093,313.006 C452.011,295.337 476.221,285.676 502.169,291.429 Z" class="cls-2"/>
    <circle cx="485" cy="378" r="29" class="cls-1"/>
    <circle cx="430.5" cy="361.5" r="17.5" class="cls-1"/>
    <circle cx="463" cy="410" r="22" class="cls-1"/>
    <circle cx="405" cy="392" r="26" class="cls-1"/>
    <ellipse cx="384" cy="384" rx="18" ry="17" class="cls-1"/>
    <circle cx="367.5" cy="430.5" r="20.5" class="cls-1"/>
    <circle cx="391.5" cy="457.5" r="18.5" class="cls-1"/>
    <circle cx="369" cy="505" r="22" class="cls-1"/>
    <path d="M406.801,449.872 C431.197,423.914 468.070,418.939 489.159,438.760 C510.249,458.581 507.568,495.691 483.173,521.649 C458.777,547.606 421.904,552.581 400.814,532.760 C379.725,512.940 382.405,475.829 406.801,449.872 Z" class="cls-2"/>
    <circle cx="320" cy="378" r="24" class="cls-1"/>
    <circle cx="235.5" cy="407.5" r="22.5" class="cls-1"/>
    <ellipse cx="198" cy="388" rx="22" ry="32" class="cls-1"/>
    <circle cx="132" cy="369" r="48" class="cls-1"/>
    <path d="M79.621,386.803 C89.126,376.545 109.984,385.554 126.210,406.924 C142.436,428.294 147.884,453.934 138.380,464.191 C128.876,474.449 108.017,465.440 91.791,444.070 C75.566,422.700 70.117,397.061 79.621,386.803 Z" class="cls-2"/>
    <circle cx="85" cy="461" r="33" class="cls-1"/>
    <ellipse cx="134" cy="491.5" rx="56" ry="27.5" class="cls-1"/>
    <ellipse cx="184" cy="460.5" rx="49" ry="28.5" class="cls-1"/>
    <ellipse cx="120.5" cy="308" rx="13.5" ry="13" class="cls-1"/>
    <circle cx="80.5" cy="207.5" r="34.5" class="cls-1"/>
    <ellipse cx="301.5" cy="91.5" rx="37.5" ry="42.5" class="cls-1"/>
    <path d="M516.139,193.408 C536.978,211.352 543.938,237.434 531.686,251.663 C519.433,265.893 492.607,262.881 471.767,244.936 C450.928,226.992 443.968,200.910 456.220,186.680 C468.473,172.451 495.300,175.463 516.139,193.408 Z" class="cls-2"/>
    <ellipse cx="289" cy="292" rx="99" ry="43" class="cls-1"/>
  </g>
</svg>
